<?xml version="1.0" encoding="utf-8" ?><svg xmlns="http://www.w3.org/2000/svg" xmlns:xlink="http://www.w3.org/1999/xlink" width="650" height="650" viewBox="0 0 650 650"><path fill="#FFEFD5" d="M230.684 140.976C238.243 140.664 247.47 140.915 255.119 140.92L299.509 140.915C320.801 140.908 347.169 139.571 367.953 142.496C379.364 144.149 390.468 147.482 400.904 152.387C430.148 166.435 451.348 189.683 462.056 220.362C472.126 249.591 470.244 281.614 456.818 309.462C444.431 335.09 420.324 358.051 393.293 367.46C391.849 365.743 389.957 363.047 388.562 361.19C387.208 359.517 385.914 357.804 384.716 356.015C381.595 351.353 378.046 346.994 374.942 342.322C399.319 332.991 415.981 321.973 428.471 298.038C452.452 252.086 428.85 194.084 380.16 177.222C363.873 171.582 352.026 172.005 335.125 172.021L308.081 172.028L243.268 172.035C231.998 172.035 218.598 172.387 207.535 171.876C210.018 167.829 214.469 162.074 217.304 158.164C221.159 152.848 225.797 145.032 230.684 140.976Z"/><path fill="#FFEFD5" d="M194.231 193.284C194.848 193.224 194.985 193.222 195.594 193.296C205.45 194.485 215.624 193.776 225.5 193.654C229.382 193.606 233.711 193.915 237.743 193.931L305.113 193.923C321.074 193.792 337.211 193.697 353.173 193.856C400.06 194.326 430.294 244.875 410.043 286.8C402.886 301.272 390.676 312.62 375.721 318.701C370.647 320.735 366.805 321.303 362.011 322.99L361.629 323.128C359.358 321.123 357.802 319.023 356.015 316.599C351.783 310.224 342.292 299.023 339.574 292.977C351.977 292.58 358.776 294.967 370.054 287.594C395.853 270.729 388.603 232.509 359.308 224.885C354.17 223.547 347.265 224.004 341.77 224.011L321.587 224.043L215.515 224.037L187.619 224.055C183.428 224.059 174.855 224.29 171.223 223.617L170.977 223.111C171.545 221.019 173.841 217.982 175.264 216.145C180.536 209.339 185.232 201.939 190.662 195.299C191.623 194.125 192.824 193.678 194.231 193.284Z"/><path fill="#FFEFD5" d="M171.821 245.066C180.757 244.709 196.235 244.634 205.123 245.058C208.881 247.398 212.917 253.955 215.58 257.618L229.394 276.708L280.68 347.764L393.138 503.088C394.023 504.319 395.649 506.437 395.418 507.87L394.586 507.994L373.631 508.045C369.395 508.057 364.453 508.192 360.305 507.881C357.319 504.548 353.143 498.484 350.415 494.7L336.032 474.823L293.736 416.724L204.234 293.801L179.755 260.167C177.911 257.614 171.01 248.394 170.199 246.341C170.589 245.511 170.823 245.617 171.821 245.066Z"/><path fill="#FFEFD5" d="M237.702 244.994C247.899 244.694 263.13 244.639 273.244 245.044C277.42 247.921 301.716 283.099 306.76 290.078L391.209 407.108L425.652 454.943C431.682 463.284 440.655 474.897 445.998 483.533C442.967 486.499 438.499 492.99 435.985 496.54C433.357 500.284 430.193 503.38 428.274 507.538C424.487 504.231 414.911 490.197 411.349 485.347L369.261 427.438L277.691 301.679L247.032 259.536C244.099 255.437 239.003 249.661 237.702 244.994Z"/><path fill="#FFEFD5" d="M318.469 55.041C331.884 54.3322 344.166 55.7343 357.437 57.1242C376.432 59.1134 394.491 63.5868 412.509 69.8936C463.162 87.1923 507.48 119.25 539.763 161.943C582.937 218.731 601.911 290.284 592.55 361.003C587.7 397.908 575.14 433.379 555.685 465.112C554.207 467.532 552.701 470.059 551.116 472.406C547.363 477.961 545.191 483.24 540.69 474.681C541.96 472.246 544.099 469.039 545.619 466.699C569.384 430.13 584.602 384.779 586.85 341.124C587.689 322.906 586.76 304.649 584.075 286.61C581.115 261.469 570.969 230.736 559.645 208.249C528.015 144.946 472.257 97.0221 404.919 75.2642C352.914 58.6418 297.016 58.6669 245.026 75.3359C227.715 80.9434 215.793 86.5586 199.776 94.6238C200.568 97.6038 201.849 103.446 201.697 106.325C200.906 121.374 189.044 132.646 173.865 132.114C166.224 131.846 160.583 129.32 155.273 123.772C145.359 113.508 145.891 95.3167 156.657 85.7788C168.354 75.4165 184.496 76.8754 194.734 88.2971C198.217 87.1209 205.976 82.968 209.599 81.1627C215.219 78.3852 220.966 75.8692 226.819 73.623C245.036 66.5631 263.893 61.3317 283.209 58.3019C295.053 56.4441 306.626 56.2039 318.469 55.041ZM177.583 124.451C187.881 122.986 195.053 113.464 193.617 103.161C192.182 92.8586 182.68 85.6597 172.374 87.0655C162.025 88.477 154.79 98.0255 156.231 108.37C157.673 118.715 167.242 125.922 177.583 124.451Z"/><path fill="#FFEFD5" d="M104.419 170.91C106.672 170.811 108.06 173.119 109.185 174.734C106.105 181.174 101.632 187.459 97.9274 193.672C54.0648 267.229 51.1336 364.894 89.7524 441.474C118.314 498.487 166.513 543.261 225.474 567.549C230.402 569.527 234.078 571.168 239.233 572.887C295.074 591.919 355.66 591.827 411.444 572.627C426.38 567.366 436.287 562.316 450.274 555.335C448.15 546.359 446.842 542.028 450.771 533.272C459.003 514.926 484.828 512.492 496.495 528.583C498.678 531.593 499.839 534.7 500.982 538.196C501.371 539.941 502.038 542.303 501.946 544.054C500.648 568.979 472.588 580.404 455.195 561.595C453.508 562.239 451.889 562.993 450.294 563.837C441.237 568.634 432.182 572.637 422.641 576.389C398.688 585.567 373.575 591.371 348.024 593.632C344.017 593.992 339.929 593.836 335.953 594.211C317.336 595.967 297.86 593.69 279.4 590.962C275.14 590.333 270.538 589.211 266.299 588.298C220.202 578.234 177.599 556.127 142.832 524.23C127.075 509.692 112.097 492.24 100.218 474.401C68.4529 426.667 52.6244 370.099 55.0034 312.812C56.9665 270.778 68.7348 229.786 89.3679 193.112C93.1578 186.308 98.8067 176.034 104.419 170.91ZM476.899 563.308C487.257 562.292 494.841 553.088 493.856 542.727C492.871 532.366 483.688 524.755 473.324 525.71C462.918 526.669 455.269 535.898 456.258 546.302C457.247 556.706 466.498 564.328 476.899 563.308Z"/><path fill="#FFEFD5" d="M433.864 372.869C435.18 373.416 446.979 390.671 449.024 393.398C459.736 407.682 469.721 422.653 480.273 437.031C477.871 439.849 475.635 443.448 473.323 446.4C469.369 451.45 465.755 456.384 462.11 461.655L458.408 456.877C450.942 446.997 443.85 436.843 436.441 426.922C433.332 422.758 430.202 418.61 427.184 414.379C423.621 409.351 420.025 404.347 416.396 399.366C414.014 396.047 410.655 391.115 407.868 388.271C416.37 382.983 424.92 378.572 433.864 372.869Z"/><path fill="#FFEFD5" d="M169.185 286.83C169.573 287.086 169.891 287.304 170.227 287.629C173.317 290.622 199.198 326.225 199.585 328.657C200.008 331.317 198.949 335.342 198.995 338.245C199.135 358.99 199.132 379.735 198.987 400.48L198.768 400.716C197.74 400.264 196.874 398.834 196.151 397.858L181.378 377.522C178.685 373.849 175.957 370.113 173.268 366.45C170.233 362.317 168.981 361.178 168.961 355.852C168.908 341.397 168.918 326.95 168.913 312.499L168.912 296.432C168.913 293.873 168.821 289.241 169.185 286.83Z"/><path fill="#FFEFD5" d="M221.43 358.857C221.729 358.988 221.748 358.98 222.057 359.206C223.778 360.459 250.519 397.266 250.956 399.82C251.37 402.236 251.108 405.094 251.104 407.558L251.099 422.296C251.093 437.583 251.094 452.873 251.067 468.161C251.065 469.369 251.184 471.103 250.531 472.06C246.21 467.234 240.278 457.864 236.056 452.442C231.993 446.645 227.452 441.186 223.546 435.288C221.602 432.352 222.022 427.639 221.807 424.241C221.409 420.57 221.943 416.404 221.645 412.814C220.573 399.909 220.97 386.977 220.923 374.034C220.909 370.094 220.586 362.359 221.43 358.857Z"/><path fill="#FFEFD5" d="M274.164 431.807C274.419 431.943 274.517 431.98 274.756 432.2C277.181 434.432 302.292 469.099 302.846 471.52C303.686 475.19 303.143 479.898 303.135 483.682L303.122 507.99C293.476 508.052 283.83 508.047 274.184 507.977C273.425 493.504 273.947 474.727 273.943 459.875L273.893 442.82C273.884 439.713 273.773 434.794 274.164 431.807Z"/></svg>